<svg id="Capa_1" enable-background="new 0 0 512 512" height="512" viewBox="0 0 512 512" width="512" xmlns="http://www.w3.org/2000/svg"><g><path d="m497 0h-482c-8.284 0-15 6.716-15 15v60c0 8.284 6.716 15 15 15h45v45c0 8.284 6.716 15 15 15h361c8.284 0 15-6.716 15-15v-45h46c8.284 0 15-6.716 15-15v-60c0-8.284-6.716-15-15-15zm-226 60v-30h90v30zm-120 0v-30h90v30zm150 30v30h-90v-30zm-271-60h91v30h-91zm60 60h91v30h-91zm331 30h-90v-30h90zm61-60h-91v-30h91z"/><path d="m121 437v60c0 8.284 6.716 15 15 15h240c8.284 0 15-6.716 15-15v-60c0-8.284-6.716-15-15-15h-240c-8.284 0-15 6.716-15 15zm30 15h210v30h-210z"/><path d="m391 225c0-24.813-20.187-45-45-45s-45 20.187-45 45 20.187 45 45 45 45-20.187 45-45zm-60 0c0-8.271 6.729-15 15-15s15 6.729 15 15-6.729 15-15 15-15-6.729-15-15z"/><path d="m423.929 399.905c4.893 6.634 14.278 8.107 20.976 3.166l61-45c3.763-2.776 6.016-7.147 6.093-11.823.077-4.675-2.03-9.119-5.699-12.018l-80.75-63.8c-6.5-5.135-15.934-4.03-21.069 2.471-5.136 6.5-4.03 15.933 2.47 21.069l65.335 51.621-45.191 33.338c-6.665 4.918-8.083 14.309-3.165 20.976z"/></g></svg>